# AST/ASF file generated using VICON BodyLanguage
# -----------------------------------------------
:version 1.10
:name VICON
:units
  mass 1.0
  length 0.45
  angle deg
:documentation
   .ast/.asf automatically generated from VICON data using
   VICON BodyBuilder and BodyLanguage model FoxedUp or BRILLIANT.MOD
:root
   order TX TY TZ RX RY RZ
   axis XYZ
   position 0 0 0  
   orientation 0 0 0 
:bonedata
  begin
     id 1 
     name lhipjoint
     direction 0.596438 -0.722117 0.35044 
     length 2.43043 
     axis 0 0 0  XYZ
  end
  begin
     id 2 
     name lfemur
     direction 0.34202 -0.939693 0  
     length 7.0339  
     axis 0 0 20  XYZ
    dof rx ry rz
    limits (-160.0 20.0)
           (-70.0 70.0)
           (-60.0 70.0)
  end
  begin
     id 3 
     name ltibia
     direction 0.34202 -0.939693 0   
     length 7.56602   
     axis 0 0 20   XYZ
    dof rx
    limits (-10.0 170.0)
  end
  begin
     id 4 
     name lfoot
     direction 0.0985677 -0.270812 0.957572   
     length 1.85172   
     axis -90 7.62852e-016 20   XYZ
    dof rx rz
    limits (-45.0 90.0)
           (-70.0 20.0)
  end
  begin
     id 5 
     name ltoes
     direction 1.53534e-011 -4.21843e-011 1   
     length 0.929904   
     axis -90 7.62852e-016 20   XYZ
    dof rx
    limits (-90.0 20.0)
  end
  begin
     id 6 
     name rhipjoint
     direction -0.585088 -0.729594 0.354068   
     length 2.40552  
     axis 0 0 0  XYZ 
  end
  begin
     id 7 
     name rfemur
     direction -0.34202 -0.939693 0   
     length 7.12573   
     axis 0 0 -20   XYZ
    dof rx ry rz
    limits (-160.0 20.0)
           (-70.0 70.0)
           (-70.0 60.0)
  end
  begin
     id 8 
     name rtibia
     direction -0.34202 -0.939693 0   
     length 7.35777   
     axis 0 0 -20   XYZ
    dof rx
    limits (-10.0 170.0)
 end
 begin
     id 9 
     name rfoot
     direction -0.120907 -0.33219 0.935431   
     length 2.0994  
     axis -90 -7.62852e-016 -20   XYZ
    dof rx rz
    limits (-45.0 90.0)
           (-20.0 70.0)
  end
  begin
     id 10 
     name rtoes
     direction -1.53577e-011 -4.21787e-011 1   
     length 1.04244   
     axis -90 -7.62852e-016 -20   XYZ
    dof rx
    limits (-90.0 20.0)
  end
  begin
     id 11 
     name lowerback
     direction 0.00268363 0.993603 -0.112896   
     length 2.15839   
     axis 0 0 0   XYZ
    dof rx ry rz
    limits (-20.0 45.0)
           (-30.0 30.0)
           (-30.0 30.0)
  end
  begin
     id 12 
     name upperback
     direction 0.0272563 0.999411 -0.0208618   
     length 2.16443   
     axis 0 0 0   XYZ
    dof rx ry rz
    limits (-20.0 45.0)
           (-30.0 30.0)
           (-30.0 30.0)
  end
  begin
     id 13 
     name thorax
     direction 0.0254655 0.999174 0.0316806   
     length 2.19003   
     axis 0 0 0   XYZ
    dof rx ry rz
    limits (-20.0 45.0)
           (-30.0 30.0)
           (-30.0 30.0)
  end
  begin
     id 14 
     name lowerneck
     direction -0.0102178 0.988048 0.15381   
     length 1.61507   
     axis 0 0 0   XYZ
    dof rx ry rz
    limits (-20.0 45.0)
           (-30.0 30.0)
           (-30.0 30.0)
  end
  begin
     id 15 
     name upperneck
     direction -0.0061965 0.994088 -0.108398   
     length 1.64042   
     axis 0 0 0   XYZ
    dof rx ry rz
    limits (-20.0 45.0)
           (-30.0 30.0)
           (-30.0 30.0)
  end
  begin
     id 16
     name head
     direction -0.00151929 0.998591 -0.0530385  
     length 1.64343  
     axis 0 0 0   XYZ
    dof rx ry rz
    limits (-20.0 45.0)
           (-30.0 30.0)
           (-30.0 30.0)
  end
  begin
     id 17 
     name lclavicle
     direction 0.948974 0.284245 -0.136574  
     length 3.3483  
     axis 0 0 0   XYZ
    dof ry rz
    limits (-20.0 10.0)
           (0.0 20.0)
  end
  begin
     id 18 
     name lhumerus
     direction 1 -4.48961e-011 1.68576e-027   
     length 4.93485   
     axis -180 -30 -90   XYZ
    dof rx ry rz
    limits (-60.0 90.0)
           (-90.0 90.0)
           (-90.0 90.0)
  end
  begin
     id 19
     name lradius
     direction 1 -4.48965e-011 -2.46405e-027   
     length 3.41719   
     axis -180 -30 -90   XYZ
    dof rx
    limits (-10.0 170.0)
  end
  begin
     id 20
     name lwrist
     direction 1 -4.48968e-011 -8.00486e-028   
     length 1.7086   
     axis 3.27501e-015 90 90   XYZ
    dof ry
    limits (-180.0 0.0)
 end
  begin
     id 21 
     name lhand
     direction 1 -4.48977e-011 -1.60161e-027   
     length 0.6241   
     axis 1.02148e-015 90 90   XYZ
    dof rx rz
    limits (-90.0 90.0)
           (-45.0 45.0)
  end
  begin
     id 22 
     name lfingers
     direction 1 -4.49049e-011 -3.21275e-027   
     length 0.503166   
     axis 2.04295e-015 90 90   XYZ
    dof rx
    limits (0.0 90.0)
  end
  begin
     id 23
     name lthumb
     direction 0.707107 -6.34975e-011 0.707107   
     length 0.722448   
     axis -90 45 -1.62303e-014   XYZ
    dof rx rz
    limits (-45.0 45.0)
           (-45.0 45.0)
  end
  begin
     id 24 
     name rclavicle
     direction -0.904485 0.355099 -0.236246   
     length 3.18329  
     axis 0 0 0   XYZ 
    dof ry rz
    limits (-10.0 20.0)
           (-20.0 0.0)
  end
  begin
     id 25 
     name rhumerus
     direction -1 -4.48953e-011 1.32816e-027  
     length 5.22034   
     axis -180 30 90   XYZ
    dof rx ry rz
    limits (-90.0 60.0)
           (-90.0 90.0)
           (-90.0 90.0)
  end
  begin
     id 26 
     name rradius
     direction -1 -4.48965e-011 -3.93727e-027   
     length 3.41809   
     axis -180 30 90   XYZ
    dof rx
    limits (-10.0 170.0)
  end
  begin
     id 27 
     name rwrist
     direction -1 -4.48962e-011 -8.003e-028   
     length 1.70904   
     axis 3.27501e-015 -90 -90   XYZ
    dof ry
    limits (-180.0 0.0)
  end
  begin
     id 28
     name rhand
     direction -1 -4.49008e-011 -1.60365e-027   
     length 0.77534   
     axis 1.02148e-015 -90 -90   XYZ
    dof rx rz
    limits (-90.0 90.0)
           (-45.0 45.0)
  end
  begin
     id 29
     name rfingers
     direction -1 -4.49001e-011 -3.2064e-027   
     length 0.625099   
     axis 2.04295e-015 -90 -90   XYZ
    dof rx
    limits (0.0 90.0)
  end
  begin
     id 30
     name rthumb
     direction -0.707107 -6.34989e-011 0.707107   
     length 0.897521   
     axis -90 -45 1.62303e-014   XYZ
    dof rx rz
    limits (-45.0 45.0)
           (-45.0 45.0)
  end
:hierarchy
  begin
    root lhipjoint rhipjoint lowerback
    lhipjoint lfemur
    lfemur ltibia
    ltibia lfoot
    lfoot ltoes
    rhipjoint rfemur
    rfemur rtibia
    rtibia rfoot
    rfoot rtoes
    lowerback upperback
    upperback thorax
    thorax lowerneck lclavicle rclavicle
    lowerneck upperneck
    upperneck head
    lclavicle lhumerus
    lhumerus lradius
    lradius lwrist
    lwrist lhand lthumb
    lhand lfingers
    rclavicle rhumerus
    rhumerus rradius
    rradius rwrist
    rwrist rhand rthumb
    rhand rfingers
  end

#!OML:ASF \\sashay\E\Suitcase\Project 1\Capture day 1\Session 1\Male1.ASF
:FULLY-SPECIFIED
:DEGREES
763
root 0.0835248 17.3042 7.09922 2.96978 6.11056 -6.12606
lowerback 3.70191 -0.418276 3.50384
upperback -1.15164 -0.279451 3.22639
thorax -3.26743 -0.174923 1.37951
lowerneck -9.23657 2.50905 -3.86518
upperneck 26.7856 4.68673 -1.07933
head 9.96514 1.68258 0.806114
rclavicle -1.48467e-014 3.1408e-014
rhumerus -26.056 -22.972 -72.2991
rradius 23.7003
rwrist -12.6085
rhand -8.62 17.2585
rfingers 7.12502
rthumb 17.3122 -11.9905
lclavicle -1.48467e-014 3.1408e-014
lhumerus -35.3239 -2.47789 87.3706
lradius 32.9901
lwrist -2.86387
lhand -0.270145 44.763
lfingers 7.12502
lthumb 25.3316 73.1007
rfemur -4.96966 -1.67055 30.5828
rtibia 20.0915
rfoot -16.3359 -11.1307
rtoes 19.8027
lfemur -33.7357 -1.67673 -14.7866
ltibia 49.5339
lfoot -13.0526 -16.5711
ltoes 28.067
764
root 0.0832848 17.3079 7.2253 3.14586 5.83478 -6.13918
lowerback 3.56239 -0.29794 3.44394
upperback -1.18213 -0.132367 3.11277
thorax -3.21971 -0.101526 1.28512
lowerneck -8.83039 2.50701 -3.57071
upperneck 26.5399 4.61679 -1.17058
head 9.80727 1.67974 0.706415
rclavicle 9.13167e-015 1.51076e-014
rhumerus -26.36 -23.3797 -72.2129
rradius 23.4396
rwrist -12.5433
rhand -8.1776 17.5698
rfingers 7.12502
rthumb 17.7379 -11.6411
lclavicle 9.13167e-015 1.51076e-014
lhumerus -35.661 -2.95943 87.3688
lradius 33.2564
lwrist -2.171
lhand -0.395299 45.6494
lfingers 7.12502
lthumb 25.2117 74.004
rfemur -4.2316 -1.35304 30.6271
rtibia 19.2064
rfoot -16.1972 -11.1488
rtoes 19.694
lfemur -33.9126 -1.69883 -14.8452
ltibia 47.2477
lfoot -13.1338 -16.4523
ltoes 28.1952
765
root 0.0894788 17.3135 7.349 3.27051 5.87943 -6.27805
lowerback 3.70649 -0.352812 3.59743
upperback -1.28461 -0.185252 3.09329
thorax -3.40821 -0.133572 1.18488
lowerneck -8.71906 2.55886 -3.45187
upperneck 26.4958 4.68518 -1.26979
head 9.77478 1.71409 0.656529
rclavicle 1.97418e-014 1.78906e-014
rhumerus -26.6752 -23.1355 -72.3252
rradius 23.5892
rwrist -12.4536
rhand -8.06045 17.7686
rfingers 7.12502
rthumb 17.8507 -11.4321
lclavicle 1.97418e-014 1.78906e-014
lhumerus -35.8086 -2.82242 87.2049
lradius 33.0768
lwrist -2.05878
lhand -0.153414 45.0515
lfingers 7.12502
lthumb 25.4434 73.3733
rfemur -3.3573 -1.59833 30.7584
rtibia 18.1042
rfoot -15.9306 -10.946
rtoes 19.6704
lfemur -34.0314 -2.09537 -14.7479
ltibia 44.9376
lfoot -13.106 -16.3452
ltoes 28.743
766
root 0.0842607 17.3146 7.4826 3.3176 5.47319 -6.49341
lowerback 3.57457 -0.188477 3.59014
upperback -1.04455 0.0179935 3.21506
thorax -3.08424 -0.026433 1.29851
lowerneck -9.07614 2.52342 -3.69389
upperneck 26.3744 4.7015 -1.29524
head 9.79581 1.69426 0.695707
rclavicle -1.1368e-014 -3.81667e-014
rhumerus -26.3069 -23.4106 -72.2486
rradius 23.2837
rwrist -12.4147
rhand -8.12936 17.8172
rfingers 7.12502
rthumb 17.7844 -11.3896
lclavicle -1.1368e-014 -3.81667e-014
lhumerus -35.8962 -2.84559 87.3641
lradius 33.5625
lwrist -1.9917
lhand -0.0751013 45.2504
lfingers 7.12502
lthumb 25.5184 73.5615
rfemur -2.41668 -0.830386 31.0844
rtibia 17.094
rfoot -15.7224 -11.3255
rtoes 19.8889
lfemur -33.982 -2.1042 -14.4737
ltibia 42.5959
lfoot -13.0513 -16.259
ltoes 29.3252
767
root 0.0858634 17.3211 7.61296 3.4019 5.0696 -6.74281
lowerback 3.8813 -0.195898 3.68305
upperback -1.28418 0.0443748 3.25431
thorax -3.50576 -0.0203196 1.28937
lowerneck -8.61627 2.69019 -3.4622
upperneck 26.3501 4.92275 -1.51216
head 9.70853 1.80071 0.595755
rclavicle 2.25496e-014 -5.96354e-015
rhumerus -26.9924 -23.7883 -72.0198
rradius 23.3408
rwrist -11.4456
rhand -8.02813 17.8729
rfingers 7.12502
rthumb 17.8818 -11.325
lclavicle 2.25496e-014 -5.96354e-015
lhumerus -36.7146 -2.68072 87.1874
lradius 33.9978
lwrist -1.94617
lhand -0.389917 45.1527
lfingers 7.12502
lthumb 25.2168 73.5066
rfemur -1.42302 -0.494579 31.3705
rtibia 15.8597
rfoot -15.3106 -11.32
rtoes 19.7243
lfemur -33.9129 -2.33402 -14.1151
ltibia 40.2392
lfoot -13.0319 -16.0004
ltoes 29.8266
768
root 0.10193 17.3288 7.74041 3.79288 4.97575 -6.29917
lowerback 3.19619 -0.157589 3.2373
upperback -0.912569 0.0121688 3.13001
thorax -2.73384 -0.0202462 1.40527
lowerneck -9.13055 2.66382 -3.41993
upperneck 26.138 4.94707 -1.72352
head 9.7391 1.79154 0.525751
rclavicle 1.34552e-014 1.41137e-014
rhumerus -26.7699 -24.9488 -71.9137
rradius 23.6579
rwrist -10.2065
rhand -7.66492 17.5134
rfingers 7.12502
rthumb 18.2312 -11.6522
lclavicle 1.34552e-014 1.41137e-014
lhumerus -36.16 -2.8098 87.2734
lradius 33.9675
lwrist -2.10526
lhand -0.0887769 45.5013
lfingers 7.12502
lthumb 25.5053 73.8142
rfemur -0.702887 -0.706569 30.8019
rtibia 14.6647
rfoot -14.9461 -11.0462
rtoes 19.143
lfemur -34.0687 -2.83206 -14.5898
ltibia 37.858
lfoot -12.9993 -15.8373
ltoes 30.3931
769
root 0.0997575 17.3348 7.87732 3.84805 4.58508 -6.47527
lowerback 3.19684 -0.12012 3.14679
upperback -0.856115 0.0580015 3.22005
thorax -2.67617 0.005517 1.54595
lowerneck -9.1549 2.717 -3.37545
upperneck 26.1029 5.05003 -1.87194
head 9.73669 1.82702 0.477956
rclavicle -9.85227e-015 -2.98177e-015
rhumerus -26.8403 -24.527 -72.0329
rradius 23.6313
rwrist -10.4618
rhand -7.77951 17.9874
rfingers 7.12502
rthumb 18.121 -11.1885
lclavicle -9.85227e-015 -2.98177e-015
lhumerus -36.3258 -2.49805 87.2171
lradius 33.9869
lwrist -2.37418
lhand -0.121242 45.404
lfingers 7.12502
lthumb 25.4742 73.7214
rfemur 0.357706 -0.208461 31.0463
rtibia 13.4291
rfoot -14.6013 -11.2361
rtoes 18.4768
lfemur -33.8988 -3.09134 -14.2397
ltibia 35.5338
lfoot -13.0992 -15.6408
ltoes 30.5826
770
root 0.132164 17.3402 7.9962 4.31221 4.77585 -6.34441
lowerback 3.42357 -0.19656 3.40789
upperback -1.39912 -0.0011805 2.99318
thorax -3.36521 -0.0395441 1.17446
lowerneck -8.62635 2.68086 -3.07968
upperneck 26.2528 4.93269 -1.90752
head 9.69709 1.79981 0.394479
rclavicle -9.11925e-015 -4.69132e-014
rhumerus -27.8753 -24.0234 -71.9131
rradius 23.7418
rwrist -10.711
rhand -7.92671 17.7799
rfingers 7.12502
rthumb 17.9794 -11.409
lclavicle -9.11925e-015 -4.69132e-014
lhumerus -37.4719 -2.86394 87.1608
lradius 34.5704
lwrist -2.158
lhand 0.20838 44.9866
lfingers 7.12502
lthumb 25.7899 73.2585
rfemur 0.948715 -1.17437 30.6807
rtibia 12.1994
rfoot -14.1901 -10.4572
rtoes 17.564
lfemur -34.2364 -4.06136 -14.3016
ltibia 33.32
lfoot -13.2807 -15.311
ltoes 30.6789
771
root 0.134035 17.3407 8.13818 4.52938 4.36927 -6.22905
lowerback 3.05162 -0.129603 3.05135
upperback -1.20889 0.0440031 3.03347
thorax -2.95795 -0.0051557 1.40933
lowerneck -8.95248 2.65936 -3.27054
upperneck 26.1925 4.93614 -1.85684
head 9.73231 1.78507 0.450056
rclavicle 1.28465e-014 -3.57812e-015
rhumerus -27.4977 -24.1138 -71.8604
rradius 23.2765
rwrist -10.6785
rhand -7.82027 18.2953
rfingers 7.12502
rthumb 18.0818 -10.8842
lclavicle 1.28465e-014 -3.57812e-015
lhumerus -37.1033 -2.64585 87.2373
lradius 34.0471
lwrist -2.40815
lhand -0.375864 45.144
lfingers 7.12502
lthumb 25.2303 73.496
rfemur 2.11586 -0.383731 30.6192
rtibia 10.5092
rfoot -13.6754 -10.901
rtoes 17.1251
lfemur -34.3055 -4.43705 -14.1877
ltibia 31.3847
lfoot -13.7627 -14.9591
ltoes 30.4562
772
root 0.142485 17.3364 8.27456 4.69164 4.14967 -6.36294
lowerback 2.94642 -0.0677647 3.09788
upperback -1.18881 0.121946 3.03446
thorax -2.87803 0.0335093 1.37948
lowerneck -9.06133 2.57925 -3.22759
upperneck 26.1645 4.80264 -1.80136
head 9.7428 1.73225 0.449363
rclavicle -9.74045e-015 1.63003e-014
rhumerus -27.617 -23.6756 -71.9473
rradius 23.0205
rwrist -11.302
rhand -7.9598 18.6303
rfingers 7.12502
rthumb 17.9475 -10.5616
lclavicle -9.74045e-015 1.63003e-014
lhumerus -37.4313 -3.08229 87.3607
lradius 34.4553
lwrist -2.40422
lhand 0.0326568 45.4345
lfingers 7.12502
lthumb 25.6217 73.7308
rfemur 3.16342 -0.158825 30.7414
rtibia 9.08439
rfoot -13.2266 -10.9628
rtoes 16.5385
lfemur -34.3999 -4.71084 -13.8856
ltibia 29.6089
lfoot -14.2342 -14.7707
ltoes 30.2574
773
root 0.157392 17.3303 8.40928 4.86858 3.83502 -6.75988
lowerback 2.73492 -0.036856 3.49257
upperback -1.07876 0.164484 3.13306
thorax -2.64528 0.0512007 1.25706
lowerneck -9.31998 2.55024 -3.36782
upperneck 26.1029 4.77731 -1.72732
head 9.7652 1.71267 0.49996
rclavicle -9.60378e-015 -1.82882e-014
rhumerus -27.447 -23.7101 -71.9173
rradius 22.6108
rwrist -10.9933
rhand -7.89313 19.018
rfingers 7.12502
rthumb 18.0117 -10.168
lclavicle -9.60378e-015 -1.82882e-014
lhumerus -37.5317 -2.9447 87.3417
lradius 34.5381
lwrist -2.82134
lhand 0.595367 44.8578
lfingers 7.12502
lthumb 26.1605 73.0754
rfemur 4.37059 0.187096 31.119
rtibia 7.26067
rfoot -12.5264 -11.0497
rtoes 15.9265
lfemur -34.6013 -5.0375 -13.2413
ltibia 28.1751
lfoot -14.7886 -14.1551
ltoes 29.5752
774
root 0.164958 17.3292 8.55067 5.25409 3.42434 -6.15584
lowerback 2.03797 0.00549531 2.5976
upperback -0.768989 0.13687 2.98259
thorax -1.93434 0.0558728 1.60104
lowerneck -9.84932 2.53648 -3.17687
upperneck 25.9681 4.76194 -1.82691
head 9.82559 1.70862 0.439696
rclavicle -2.07978e-014 -1.53064e-014
rhumerus -26.8087 -24.2873 -72.02
rradius 22.1742
rwrist -10.3093
rhand -7.73427 18.4162
rfingers 7.12502
rthumb 18.1645 -10.7557
lclavicle -2.07978e-014 -1.53064e-014
lhumerus -37.0706 -3.07482 87.3424
lradius 34.1793
lwrist -2.81285
lhand 0.17126 45.3739
lfingers 7.12502
lthumb 25.7544 73.651
rfemur 5.66751 0.571546 30.4409
rtibia 5.04768
rfoot -11.6815 -11.1251
rtoes 15.5151
lfemur -34.9012 -5.35606 -13.6789
ltibia 27.0133
lfoot -15.361 -13.2539
ltoes 28.1865
